{
  "accessors": [
    {
      "bufferView": 2,
      "componentType": 5126,
      "count": 1332,
      "max": [
        17222.19921875,
        12364.1826171875,
        1087.7041015625
      ],
      "min": [
        -8902.2001953125,
        -13728.21484375,
        -8704.947265625
      ],
      "type": "VEC3"
    },
    {
      "bufferView": 2,
      "byteOffset": 15984,
      "componentType": 5126,
      "count": 1332,
      "max": [
        0.34662872552871704,
        1.0,
        1.0
      ],
      "min": [
        -0.34662872552871704,
        -1.0,
        0.0
      ],
      "type": "VEC3"
    },
    {
      "bufferView": 1,
      "componentType": 5126,
      "count": 1332,
      "max": [
        112.5625,
        103.5
      ],
      "min": [
        -91.5,
        -100.3125
      ],
      "type": "VEC2"
    },
    {
      "bufferView": 1,
      "byteOffset": 10656,
      "componentType": 5126,
      "count": 1332,
      "max": [
        0.8115234375,
        0.998046875
      ],
      "min": [
        0.001953125,
        0.43408203125
      ],
      "type": "VEC2"
    },
    {
      "bufferView": 0,
      "componentType": 5125,
      "count": 3852,
      "type": "SCALAR"
    },
    {
      "bufferView": 2,
      "byteOffset": 31968,
      "componentType": 5126,
      "count": 9926,
      "max": [
        17286.19921875,
        12428.1826171875,
        1311.7109375
      ],
      "min": [
        -8966.0,
        -13792.015625,
        -8768.947265625
      ],
      "type": "VEC3"
    },
    {
      "bufferView": 2,
      "byteOffset": 151080,
      "componentType": 5126,
      "count": 9926,
      "max": [
        1.0,
        1.0,
        1.0
      ],
      "min": [
        -1.0,
        -1.0,
        -1.0
      ],
      "type": "VEC3"
    },
    {
      "bufferView": 1,
      "byteOffset": 21312,
      "componentType": 5126,
      "count": 9926,
      "max": [
        113.0625,
        104.0
      ],
      "min": [
        -95.8125,
        -100.8125
      ],
      "type": "VEC2"
    },
    {
      "bufferView": 1,
      "byteOffset": 100720,
      "componentType": 5126,
      "count": 9926,
      "max": [
        0.99755859375,
        0.998046875
      ],
      "min": [
        0.001953125,
        0.08544921875
      ],
      "type": "VEC2"
    },
    {
      "bufferView": 0,
      "byteOffset": 15408,
      "componentType": 5125,
      "count": 27810,
      "type": "SCALAR"
    },
    {
      "bufferView": 2,
      "byteOffset": 270192,
      "componentType": 5126,
      "count": 8180,
      "max": [
        17258.19921875,
        12290.2783203125,
        1724.001953125
      ],
      "min": [
        -2689.830078125,
        -7740.0166015625,
        -8516.021484375
      ],
      "type": "VEC3"
    },
    {
      "bufferView": 2,
      "byteOffset": 368352,
      "componentType": 5126,
      "count": 8180,
      "max": [
        1.0,
        1.0,
        1.0
      ],
      "min": [
        -1.0,
        -1.0,
        -1.0
      ],
      "type": "VEC3"
    },
    {
      "bufferView": 1,
      "byteOffset": 180128,
      "componentType": 5126,
      "count": 8180,
      "max": [
        112.875,
        56.6875
      ],
      "min": [
        -56.59375,
        -99.1875
      ],
      "type": "VEC2"
    },
    {
      "bufferView": 1,
      "byteOffset": 245568,
      "componentType": 5126,
      "count": 8180,
      "max": [
        0.99462890625,
        0.998046875
      ],
      "min": [
        0.001953125,
        0.701171875
      ],
      "type": "VEC2"
    },
    {
      "bufferView": 0,
      "byteOffset": 126648,
      "componentType": 5125,
      "count": 22200,
      "type": "SCALAR"
    },
    {
      "bufferView": 2,
      "byteOffset": 466512,
      "componentType": 5126,
      "count": 4,
      "max": [
        7405.9130859375,
        5116.287109375,
        1298.72314453125
      ],
      "min": [
        6430.9130859375,
        5116.287109375,
        1123.72314453125
      ],
      "type": "VEC3"
    },
    {
      "bufferView": 2,
      "byteOffset": 466560,
      "componentType": 5126,
      "count": 4,
      "max": [
        0.0,
        -1.0,
        0.0
      ],
      "min": [
        0.0,
        -1.0,
        0.0
      ],
      "type": "VEC3"
    },
    {
      "bufferView": 1,
      "byteOffset": 311008,
      "componentType": 5126,
      "count": 4,
      "max": [
        1.0,
        1.0
      ],
      "min": [
        0.0,
        0.0
      ],
      "type": "VEC2"
    },
    {
      "bufferView": 1,
      "byteOffset": 311040,
      "componentType": 5126,
      "count": 4,
      "max": [
        0.05169677734375,
        0.939483642578125
      ],
      "min": [
        0.048828125,
        0.92333984375
      ],
      "type": "VEC2"
    },
    {
      "bufferView": 1,
      "byteOffset": 311072,
      "componentType": 5126,
      "count": 4,
      "max": [
        1.0,
        1.0
      ],
      "min": [
        0.0,
        0.0
      ],
      "type": "VEC2"
    },
    {
      "bufferView": 0,
      "byteOffset": 215448,
      "componentType": 5125,
      "count": 6,
      "type": "SCALAR"
    },
    {
      "bufferView": 2,
      "byteOffset": 466608,
      "componentType": 5126,
      "count": 4,
      "max": [
        4512.55078125,
        4521.52734375,
        676.3890380859375
      ],
      "min": [
        3587.550537109375,
        4521.52734375,
        551.3890380859375
      ],
      "type": "VEC3"
    },
    {
      "bufferView": 2,
      "byteOffset": 466656,
      "componentType": 5126,
      "count": 4,
      "max": [
        0.0,
        -1.0,
        0.0
      ],
      "min": [
        0.0,
        -1.0,
        0.0
      ],
      "type": "VEC3"
    },
    {
      "bufferView": 1,
      "byteOffset": 311104,
      "componentType": 5126,
      "count": 4,
      "max": [
        1.0,
        1.0
      ],
      "min": [
        0.0,
        0.0
      ],
      "type": "VEC2"
    },
    {
      "bufferView": 1,
      "byteOffset": 311136,
      "componentType": 5126,
      "count": 4,
      "max": [
        0.76318359375,
        0.998046875
      ],
      "min": [
        0.748046875,
        0.9959831237792969
      ],
      "type": "VEC2"
    },
    {
      "bufferView": 1,
      "byteOffset": 311168,
      "componentType": 5126,
      "count": 4,
      "max": [
        1.0,
        1.0
      ],
      "min": [
        0.0,
        0.0
      ],
      "type": "VEC2"
    },
    {
      "bufferView": 0,
      "byteOffset": 215472,
      "componentType": 5125,
      "count": 6,
      "type": "SCALAR"
    }
  ],
  "asset": {
    "extras": {
      "author": "SaltedCrackerJack (https://sketchfab.com/witzke321)",
      "license": "CC-BY-4.0 (http://creativecommons.org/licenses/by/4.0/)",
      "source": "https://sketchfab.com/3d-models/race-track-2-1137622946824efe870028b10caacd94",
      "title": "Race track #2"
    },
    "generator": "Sketchfab-13.74.0",
    "version": "2.0"
  },
  "bufferViews": [
    {
      "buffer": 0,
      "byteLength": 215496,
      "name": "floatBufferViews",
      "target": 34963
    },
    {
      "buffer": 0,
      "byteLength": 311200,
      "byteOffset": 215496,
      "byteStride": 8,
      "name": "floatBufferViews",
      "target": 34962
    },
    {
      "buffer": 0,
      "byteLength": 466704,
      "byteOffset": 526696,
      "byteStride": 12,
      "name": "floatBufferViews",
      "target": 34962
    }
  ],
  "buffers": [
    {
      "byteLength": 993400,
      "uri": "scene.bin"
    }
  ],
  "materials": [
    {
      "doubleSided": true,
      "name": "M_Concrete_Poured",
      "pbrMetallicRoughness": {
        "baseColorFactor": [
          0.215861,
          0.215861,
          0.215861,
          1.0
        ],
        "metallicFactor": 0.0,
        "roughnessFactor": 0.9577051494623774
      }
    },
    {
      "doubleSided": true,
      "name": "M_Concrete_Panels",
      "pbrMetallicRoughness": {
        "baseColorFactor": [
          0.215861,
          0.215861,
          0.215861,
          1.0
        ],
        "metallicFactor": 0.0,
        "roughnessFactor": 0.9577051494623774
      }
    },
    {
      "doubleSided": true,
      "name": "M_Metal_Rust",
      "pbrMetallicRoughness": {
        "baseColorFactor": [
          0.215861,
          0.215861,
          0.215861,
          1.0
        ],
        "metallicFactor": 0.0,
        "roughnessFactor": 0.9577051494623774
      }
    },
    {
      "doubleSided": true,
      "name": "start_Mat",
      "pbrMetallicRoughness": {
        "baseColorFactor": [
          0.8,
          0.8,
          0.8,
          1.0
        ],
        "metallicFactor": 0.0,
        "roughnessFactor": 0.9577051494623774
      }
    },
    {
      "doubleSided": true,
      "name": "slw-down_Mat",
      "pbrMetallicRoughness": {
        "baseColorFactor": [
          0.8,
          0.8,
          0.8,
          1.0
        ],
        "metallicFactor": 0.0,
        "roughnessFactor": 0.9577051494623774
      }
    }
  ],
  "meshes": [
    {
      "name": "map-mrg_M_Concrete_Poured_0",
      "primitives": [
        {
          "attributes": {
            "NORMAL": 1,
            "POSITION": 0,
            "TEXCOORD_0": 2,
            "TEXCOORD_1": 3
          },
          "indices": 4,
          "material": 0,
          "mode": 4
        }
      ]
    },
    {
      "name": "map-mrg_M_Concrete_Panels_0",
      "primitives": [
        {
          "attributes": {
            "NORMAL": 6,
            "POSITION": 5,
            "TEXCOORD_0": 7,
            "TEXCOORD_1": 8
          },
          "indices": 9,
          "material": 1,
          "mode": 4
        }
      ]
    },
    {
      "name": "map-mrg_M_Metal_Rust_0",
      "primitives": [
        {
          "attributes": {
            "NORMAL": 11,
            "POSITION": 10,
            "TEXCOORD_0": 12,
            "TEXCOORD_1": 13
          },
          "indices": 14,
          "material": 2,
          "mode": 4
        }
      ]
    },
    {
      "name": "map-mrg_start_Mat_0",
      "primitives": [
        {
          "attributes": {
            "NORMAL": 16,
            "POSITION": 15,
            "TEXCOORD_0": 17,
            "TEXCOORD_1": 18,
            "TEXCOORD_2": 19
          },
          "indices": 20,
          "material": 3,
          "mode": 4
        }
      ]
    },
    {
      "name": "map-mrg_slw-down_Mat_0",
      "primitives": [
        {
          "attributes": {
            "NORMAL": 22,
            "POSITION": 21,
            "TEXCOORD_0": 23,
            "TEXCOORD_1": 24,
            "TEXCOORD_2": 25
          },
          "indices": 26,
          "material": 4,
          "mode": 4
        }
      ]
    }
  ],
  "nodes": [
    {
      "children": [
        1
      ],
      "matrix": [
        -0.999993085861206,
        0.0037256416399031878,
        8.272586260245491e-19,
        0.0,
        0.0,
        2.220446049250313e-16,
        -1.0,
        0.0,
        -0.0037256416399031878,
        -0.999993085861206,
        -2.220430696778144e-16,
        0.0,
        0.0,
        0.0,
        0.0,
        1.0
      ],
      "name": "Sketchfab_model"
    },
    {
      "children": [
        2
      ],
      "matrix": [
        0.009999999776482582,
        0.0,
        0.0,
        0.0,
        0.0,
        -0.009999999776482582,
        0.0,
        0.0,
        0.0,
        0.0,
        -0.009999999776482582,
        0.0,
        0.0,
        0.0,
        0.0,
        1.0
      ],
      "name": "21c9b7aa5891425baa9d11aa451481eb.fbx"
    },
    {
      "children": [
        3
      ],
      "name": "RootNode"
    },
    {
      "children": [
        4,
        5,
        6,
        7,
        8
      ],
      "name": "map-mrg"
    },
    {
      "mesh": 0,
      "name": "map-mrg_M_Concrete_Poured_0"
    },
    {
      "mesh": 1,
      "name": "map-mrg_M_Concrete_Panels_0"
    },
    {
      "mesh": 2,
      "name": "map-mrg_M_Metal_Rust_0"
    },
    {
      "mesh": 3,
      "name": "map-mrg_start_Mat_0"
    },
    {
      "mesh": 4,
      "name": "map-mrg_slw-down_Mat_0"
    }
  ],
  "scene": 0,
  "scenes": [
    {
      "name": "Sketchfab_Scene",
      "nodes": [
        0
      ]
    }
  ]
}
