{
  "accessors": [
    {
      "bufferView": 2,
      "componentType": 5126,
      "count": 13089,
      "max": [
        24000.0,
        27648.0,
        8104.0
      ],
      "min": [
        0.0,
        0.0,
        0.0
      ],
      "type": "VEC3"
    },
    {
      "bufferView": 2,
      "byteOffset": 157068,
      "componentType": 5126,
      "count": 13089,
      "max": [
        1.0,
        1.0,
        1.0
      ],
      "min": [
        -1.0,
        -1.0,
        -1.0
      ],
      "type": "VEC3"
    },
    {
      "bufferView": 1,
      "componentType": 5126,
      "count": 13089,
      "max": [
        109.62799835205078,
        89.87349700927734
      ],
      "min": [
        -81.50430297851563,
        -126.12699890136719
      ],
      "type": "VEC2"
    },
    {
      "bufferView": 0,
      "componentType": 5125,
      "count": 53694,
      "type": "SCALAR"
    },
    {
      "bufferView": 2,
      "byteOffset": 314136,
      "componentType": 5126,
      "count": 1372,
      "max": [
        23936.0,
        27584.0,
        7944.0
      ],
      "min": [
        64.0,
        0.0,
        0.0
      ],
      "type": "VEC3"
    },
    {
      "bufferView": 2,
      "byteOffset": 330600,
      "componentType": 5126,
      "count": 1372,
      "max": [
        1.0,
        1.0,
        1.0
      ],
      "min": [
        -1.0,
        -1.0,
        -0.3317919075489044
      ],
      "type": "VEC3"
    },
    {
      "bufferView": 1,
      "byteOffset": 104712,
      "componentType": 5126,
      "count": 1372,
      "max": [
        107.12699890136719,
        89.37349700927734
      ],
      "min": [
        -81.50430297851563,
        -125.62699890136719
      ],
      "type": "VEC2"
    },
    {
      "bufferView": 0,
      "byteOffset": 214776,
      "componentType": 5125,
      "count": 3858,
      "type": "SCALAR"
    }
  ],
  "asset": {
    "extras": {
      "author": "SaltedCrackerJack (https://sketchfab.com/witzke321)",
      "license": "CC-BY-4.0 (http://creativecommons.org/licenses/by/4.0/)",
      "source": "https://sketchfab.com/3d-models/race-track3-9638bcd7b61a43aca53cbe2b677ef6c7",
      "title": "race track3"
    },
    "generator": "Sketchfab-13.74.0",
    "version": "2.0"
  },
  "bufferViews": [
    {
      "buffer": 0,
      "byteLength": 230208,
      "name": "floatBufferViews",
      "target": 34963
    },
    {
      "buffer": 0,
      "byteLength": 115688,
      "byteOffset": 230208,
      "byteStride": 8,
      "name": "floatBufferViews",
      "target": 34962
    },
    {
      "buffer": 0,
      "byteLength": 347064,
      "byteOffset": 345896,
      "byteStride": 12,
      "name": "floatBufferViews",
      "target": 34962
    }
  ],
  "buffers": [
    {
      "byteLength": 692960,
      "uri": "scene.bin"
    }
  ],
  "materials": [
    {
      "doubleSided": true,
      "name": "material_0",
      "pbrMetallicRoughness": {
        "metallicFactor": 0.0,
        "roughnessFactor": 0.6
      }
    }
  ],
  "meshes": [
    {
      "name": "Object_0",
      "primitives": [
        {
          "attributes": {
            "NORMAL": 1,
            "POSITION": 0,
            "TEXCOORD_0": 2
          },
          "indices": 3,
          "material": 0,
          "mode": 4
        }
      ]
    },
    {
      "name": "Object_1",
      "primitives": [
        {
          "attributes": {
            "NORMAL": 5,
            "POSITION": 4,
            "TEXCOORD_0": 6
          },
          "indices": 7,
          "material": 0,
          "mode": 4
        }
      ]
    }
  ],
  "nodes": [
    {
      "children": [
        1
      ],
      "matrix": [
        1.0,
        0.0,
        0.0,
        0.0,
        0.0,
        2.220446049250313e-16,
        -1.0,
        0.0,
        0.0,
        1.0,
        2.220446049250313e-16,
        0.0,
        0.0,
        0.0,
        0.0,
        1.0
      ],
      "name": "Sketchfab_model"
    },
    {
      "children": [
        2
      ],
      "matrix": [
        1.0,
        0.0,
        0.0,
        0.0,
        0.0,
        1.0,
        0.0,
        0.0,
        0.0,
        0.0,
        1.0,
        0.0,
        -10223.7998046875,
        -11503.7998046875,
        -56.00019836425781,
        1.0
      ],
      "name": "skfb_offset"
    },
    {
      "children": [
        3,
        4
      ],
      "name": "Object_2"
    },
    {
      "mesh": 0,
      "name": "Object_3"
    },
    {
      "mesh": 1,
      "name": "Object_4"
    }
  ],
  "scene": 0,
  "scenes": [
    {
      "name": "Sketchfab_Scene",
      "nodes": [
        0
      ]
    }
  ]
}
