{
  "accessors": [
    {
      "bufferView": 2,
      "componentType": 5126,
      "count": 6638,
      "max": [
        0.795562744140625,
        0.795562744140625,
        3.953097343444824
      ],
      "min": [
        -0.795562744140625,
        -0.7955628633499146,
        -1.4156384468078613
      ],
      "type": "VEC3"
    },
    {
      "bufferView": 2,
      "byteOffset": 79656,
      "componentType": 5126,
      "count": 6638,
      "max": [
        0.9976975321769714,
        0.9976983070373535,
        1.0
      ],
      "min": [
        -0.9976975321769714,
        -0.9976980686187744,
        -1.0
      ],
      "type": "VEC3"
    },
    {
      "bufferView": 1,
      "componentType": 5126,
      "count": 6638,
      "max": [
        1.0000001192092896,
        0.9994933605194092
      ],
      "min": [
        0.0,
        -0.0039062495343387127
      ],
      "type": "VEC2"
    },
    {
      "bufferView": 1,
      "byteOffset": 53104,
      "componentType": 5126,
      "count": 6638,
      "max": [
        1.0000001192092896,
        0.9994933605194092
      ],
      "min": [
        0.0,
        -0.0039062495343387127
      ],
      "type": "VEC2"
    },
    {
      "bufferView": 1,
      "byteOffset": 106208,
      "componentType": 5126,
      "count": 6638,
      "max": [
        1.0000001192092896,
        0.9994933605194092
      ],
      "min": [
        0.0,
        -0.0039062495343387127
      ],
      "type": "VEC2"
    },
    {
      "bufferView": 0,
      "componentType": 5125,
      "count": 14400,
      "type": "SCALAR"
    },
    {
      "bufferView": 2,
      "byteOffset": 159312,
      "componentType": 5126,
      "count": 352,
      "max": [
        0.7259208559989929,
        0.7259210348129272,
        -1.0450475215911865
      ],
      "min": [
        -0.7259210348129272,
        -0.7259210348129272,
        -1.3883628845214844
      ],
      "type": "VEC3"
    },
    {
      "bufferView": 2,
      "byteOffset": 163536,
      "componentType": 5126,
      "count": 352,
      "max": [
        0.7071079611778259,
        0.7071085572242737,
        7.044849326121039e-07
      ],
      "min": [
        -0.7071074843406677,
        -0.7071078419685364,
        -6.709386752845603e-07
      ],
      "type": "VEC3"
    },
    {
      "bufferView": 1,
      "byteOffset": 159312,
      "componentType": 5126,
      "count": 352,
      "max": [
        0.632239818572998,
        0.6274800300598145
      ],
      "min": [
        0.007181048393249512,
        0.007181048393249512
      ],
      "type": "VEC2"
    },
    {
      "bufferView": 1,
      "byteOffset": 162128,
      "componentType": 5126,
      "count": 352,
      "max": [
        0.632239818572998,
        0.6274800300598145
      ],
      "min": [
        0.007181048393249512,
        0.007181048393249512
      ],
      "type": "VEC2"
    },
    {
      "bufferView": 0,
      "byteOffset": 57600,
      "componentType": 5125,
      "count": 672,
      "type": "SCALAR"
    },
    {
      "bufferView": 2,
      "byteOffset": 167760,
      "componentType": 5126,
      "count": 1760,
      "max": [
        0.7552564740180969,
        0.7552564740180969,
        3.3419151306152344
      ],
      "min": [
        -0.7552564740180969,
        -0.7552564740180969,
        -1.4156384468078613
      ],
      "type": "VEC3"
    },
    {
      "bufferView": 2,
      "byteOffset": 188880,
      "componentType": 5126,
      "count": 1760,
      "max": [
        0.9997034668922424,
        0.9997034668922424,
        0.26721885800361633
      ],
      "min": [
        -0.9997034668922424,
        -0.9997034668922424,
        -0.06736243516206741
      ],
      "type": "VEC3"
    },
    {
      "bufferView": 1,
      "byteOffset": 164944,
      "componentType": 5126,
      "count": 1760,
      "max": [
        0.9995644092559814,
        1.0
      ],
      "min": [
        0.0,
        0.0
      ],
      "type": "VEC2"
    },
    {
      "bufferView": 1,
      "byteOffset": 179024,
      "componentType": 5126,
      "count": 1760,
      "max": [
        0.9995644092559814,
        1.0
      ],
      "min": [
        0.0,
        0.0
      ],
      "type": "VEC2"
    },
    {
      "bufferView": 0,
      "byteOffset": 60288,
      "componentType": 5125,
      "count": 2640,
      "type": "SCALAR"
    },
    {
      "bufferView": 2,
      "byteOffset": 210000,
      "componentType": 5126,
      "count": 21576,
      "max": [
        0.8118672370910645,
        0.8118674755096436,
        3.8362369537353516
      ],
      "min": [
        -0.811867356300354,
        -0.811867356300354,
        -1.4156384468078613
      ],
      "type": "VEC3"
    },
    {
      "bufferView": 2,
      "byteOffset": 468912,
      "componentType": 5126,
      "count": 21576,
      "max": [
        0.999703586101532,
        0.9997034668922424,
        1.0
      ],
      "min": [
        -0.999703586101532,
        -0.999703586101532,
        -1.0
      ],
      "type": "VEC3"
    },
    {
      "bufferView": 1,
      "byteOffset": 193104,
      "componentType": 5126,
      "count": 21576,
      "max": [
        1.0,
        0.9994416236877441
      ],
      "min": [
        0.0,
        0.0
      ],
      "type": "VEC2"
    },
    {
      "bufferView": 1,
      "byteOffset": 365712,
      "componentType": 5126,
      "count": 21576,
      "max": [
        1.0,
        0.9994416236877441
      ],
      "min": [
        0.0,
        0.0
      ],
      "type": "VEC2"
    },
    {
      "bufferView": 0,
      "byteOffset": 70848,
      "componentType": 5125,
      "count": 61182,
      "type": "SCALAR"
    }
  ],
  "asset": {
    "extras": {
      "author": "alexinsouratselou (https://sketchfab.com/alexinsouratselou)",
      "license": "CC-BY-4.0 (http://creativecommons.org/licenses/by/4.0/)",
      "source": "https://sketchfab.com/3d-models/ams-s1-820b7e36f516422f80771fd5a084c55f",
      "title": "AMS S1"
    },
    "generator": "Sketchfab-14.17.0",
    "version": "2.0"
  },
  "bufferViews": [
    {
      "buffer": 0,
      "byteLength": 315576,
      "name": "floatBufferViews",
      "target": 34963
    },
    {
      "buffer": 0,
      "byteLength": 538320,
      "byteOffset": 315576,
      "byteStride": 8,
      "name": "floatBufferViews",
      "target": 34962
    },
    {
      "buffer": 0,
      "byteLength": 727824,
      "byteOffset": 853896,
      "byteStride": 12,
      "name": "floatBufferViews",
      "target": 34962
    }
  ],
  "buffers": [
    {
      "byteLength": 1581720,
      "uri": "scene.bin"
    }
  ],
  "images": [
    {
      "uri": "textures/S1_NEON_WHITE_BAKED_baseColor.png"
    },
    {
      "uri": "textures/S1_WINDOWS_BAKED_baseColor.png"
    },
    {
      "uri": "textures/S1_WALLS_BAKED_baseColor.png"
    }
  ],
  "materials": [
    {
      "emissiveFactor": [
        1.0,
        1.0,
        1.0
      ],
      "name": "S1_NEON_WHITE_BAKED",
      "pbrMetallicRoughness": {
        "baseColorTexture": {
          "index": 0
        },
        "metallicFactor": 0.0,
        "roughnessFactor": 0.12647657592861233
      }
    },
    {
      "doubleSided": true,
      "name": "S1_WINDOWS_BAKED",
      "pbrMetallicRoughness": {
        "baseColorTexture": {
          "index": 1
        },
        "metallicFactor": 0.7664785264107471,
        "roughnessFactor": 0.014092233423949607
      }
    },
    {
      "doubleSided": true,
      "name": "S1_WALLS_BAKED",
      "pbrMetallicRoughness": {
        "baseColorFactor": [
          0.8883836598359156,
          0.8883836598359156,
          0.8883836598359156,
          1.0
        ],
        "baseColorTexture": {
          "index": 2
        },
        "metallicFactor": 0.18742914264119662,
        "roughnessFactor": 0.8211145618000169
      }
    }
  ],
  "meshes": [
    {
      "name": "S1 NEON MAT_S1 NEON WHITE BAKED_0",
      "primitives": [
        {
          "attributes": {
            "NORMAL": 1,
            "POSITION": 0,
            "TEXCOORD_0": 2,
            "TEXCOORD_1": 3,
            "TEXCOORD_2": 4
          },
          "indices": 5,
          "material": 0,
          "mode": 4
        }
      ]
    },
    {
      "name": "S1 NEON MAT_S1 WINDOWS BAKED_0",
      "primitives": [
        {
          "attributes": {
            "NORMAL": 7,
            "POSITION": 6,
            "TEXCOORD_0": 8,
            "TEXCOORD_1": 9
          },
          "indices": 10,
          "material": 1,
          "mode": 4
        }
      ]
    },
    {
      "name": "S1 windows mat_S1 WINDOWS BAKED_0",
      "primitives": [
        {
          "attributes": {
            "NORMAL": 12,
            "POSITION": 11,
            "TEXCOORD_0": 13,
            "TEXCOORD_1": 14
          },
          "indices": 15,
          "material": 1,
          "mode": 4
        }
      ]
    },
    {
      "name": "S1 WALLS MAT_S1 WALLS BAKED_0",
      "primitives": [
        {
          "attributes": {
            "NORMAL": 17,
            "POSITION": 16,
            "TEXCOORD_0": 18,
            "TEXCOORD_1": 19
          },
          "indices": 20,
          "material": 2,
          "mode": 4
        }
      ]
    }
  ],
  "nodes": [
    {
      "children": [
        1
      ],
      "matrix": [
        5.451971530914307,
        0.0,
        0.0,
        0.0,
        0.0,
        1.2105808646443853e-15,
        -5.451971530914307,
        0.0,
        0.0,
        5.451971530914307,
        1.2105808646443853e-15,
        0.0,
        0.0,
        0.0,
        0.0,
        1.0
      ],
      "name": "Sketchfab_model"
    },
    {
      "children": [
        2
      ],
      "matrix": [
        0.009999999776482582,
        0.0,
        0.0,
        0.0,
        0.0,
        0.0,
        0.009999999776482582,
        0.0,
        0.0,
        -0.009999999776482582,
        0.0,
        0.0,
        0.0,
        0.0,
        0.0,
        1.0
      ],
      "name": "331775b1f4074af882466590b1f86d98.fbx"
    },
    {
      "children": [
        3,
        6,
        8
      ],
      "name": "RootNode"
    },
    {
      "children": [
        4,
        5
      ],
      "matrix": [
        100.0,
        0.0,
        0.0,
        0.0,
        -0.0,
        -1.629206793918314e-05,
        -99.99999999999868,
        0.0,
        0.0,
        99.99999999999868,
        -1.629206793918314e-05,
        0.0,
        -1.1310410172882257e-06,
        161.56382751464844,
        400.0,
        1.0
      ],
      "name": "S1 NEON MAT"
    },
    {
      "mesh": 0,
      "name": "S1 NEON MAT_S1 NEON WHITE BAKED_0"
    },
    {
      "mesh": 1,
      "name": "S1 NEON MAT_S1 WINDOWS BAKED_0"
    },
    {
      "children": [
        7
      ],
      "matrix": [
        100.0,
        0.0,
        0.0,
        0.0,
        -0.0,
        -1.629206793918314e-05,
        -99.99999999999868,
        0.0,
        0.0,
        99.99999999999868,
        -1.629206793918314e-05,
        0.0,
        -1.1310410172882257e-06,
        161.56382751464844,
        400.0,
        1.0
      ],
      "name": "S1 windows mat"
    },
    {
      "mesh": 2,
      "name": "S1 windows mat_S1 WINDOWS BAKED_0"
    },
    {
      "children": [
        9
      ],
      "matrix": [
        100.0,
        0.0,
        0.0,
        0.0,
        -0.0,
        -1.629206793918314e-05,
        -99.99999999999868,
        0.0,
        0.0,
        99.99999999999868,
        -1.629206793918314e-05,
        0.0,
        -1.1310410172882257e-06,
        161.56382751464844,
        400.0,
        1.0
      ],
      "name": "S1 WALLS MAT"
    },
    {
      "mesh": 3,
      "name": "S1 WALLS MAT_S1 WALLS BAKED_0"
    }
  ],
  "samplers": [
    {
      "magFilter": 9729,
      "minFilter": 9987,
      "wrapS": 10497,
      "wrapT": 10497
    }
  ],
  "scene": 0,
  "scenes": [
    {
      "name": "Sketchfab_Scene",
      "nodes": [
        0
      ]
    }
  ],
  "textures": [
    {
      "sampler": 0,
      "source": 0
    },
    {
      "sampler": 0,
      "source": 1
    },
    {
      "sampler": 0,
      "source": 2
    }
  ]
}
